<svg width="246.75" height="24.3" viewBox="0 0 246.75 24.3" xmlns="http://www.w3.org/2000/svg"><g id="svgGroup" stroke-linecap="round" fill-rule="evenodd" font-size="9pt" stroke="#ffffff" stroke-width="0.25mm" fill="#ffffff" style="stroke:#ffffff;stroke-width:0.25mm;fill:#ffffff"><path d="M 2.25 18.5 L 0 18.5 L 0 1 L 3.325 1 L 8.175 12.075 L 12.95 1 L 16.35 1 L 16.35 18.5 L 13.975 18.5 L 13.975 4.025 L 9.3 14.55 L 6.95 14.55 L 2.25 4.025 L 2.25 18.5 Z M 230 18.5 L 227.75 18.5 L 227.75 5.5 L 229.925 5.5 L 229.925 7.675 Q 230.625 6.625 231.7 5.913 A 4.301 4.301 0 0 1 234.001 5.202 A 5.215 5.215 0 0 1 234.15 5.2 Q 235.7 5.2 236.687 5.95 A 3.938 3.938 0 0 1 238.049 7.872 A 4.789 4.789 0 0 1 238.075 7.95 Q 238.85 6.8 239.912 6 A 3.917 3.917 0 0 1 241.61 5.279 A 5.362 5.362 0 0 1 242.55 5.2 Q 244.675 5.2 245.712 6.538 A 4.748 4.748 0 0 1 246.565 8.356 Q 246.727 9.023 246.747 9.801 A 8.649 8.649 0 0 1 246.75 10.025 L 246.75 18.5 L 244.5 18.5 L 244.5 10.2 Q 244.5 8.85 243.875 8.013 A 1.993 1.993 0 0 0 242.422 7.188 A 2.67 2.67 0 0 0 242.15 7.175 A 2.982 2.982 0 0 0 240.46 7.707 A 3.999 3.999 0 0 0 240.062 8.012 Q 239.1 8.85 238.375 9.975 L 238.375 18.5 L 236.125 18.5 L 236.125 10.2 Q 236.125 8.85 235.5 8.013 A 1.993 1.993 0 0 0 234.047 7.188 A 2.67 2.67 0 0 0 233.775 7.175 A 3.005 3.005 0 0 0 232.195 7.632 A 4.061 4.061 0 0 0 231.7 7.987 Q 230.725 8.8 230 9.9 L 230 18.5 Z M 109.625 18.5 L 107.25 18.5 L 107.25 1 L 109.625 1 L 109.625 8.475 L 118.25 8.475 L 118.25 1 L 120.625 1 L 120.625 18.5 L 118.25 18.5 L 118.25 10.525 L 109.625 10.525 L 109.625 18.5 Z M 155.375 23.2 L 156.2 21.25 A 5.14 5.14 0 0 0 157.154 21.843 A 6.184 6.184 0 0 0 157.6 22.038 A 4.226 4.226 0 0 0 158.397 22.257 Q 158.789 22.326 159.24 22.344 A 7.947 7.947 0 0 0 159.55 22.35 A 5.425 5.425 0 0 0 160.68 22.239 Q 161.405 22.085 161.955 21.715 A 3.144 3.144 0 0 0 162.337 21.412 Q 163.35 20.475 163.35 18.425 L 163.35 16.825 A 3.95 3.95 0 0 1 162.85 17.32 Q 162.454 17.652 161.913 17.963 A 3.977 3.977 0 0 1 160.617 18.421 A 5.397 5.397 0 0 1 159.675 18.5 Q 158.2 18.5 156.875 17.738 A 5.559 5.559 0 0 1 155.052 16.028 A 6.859 6.859 0 0 1 154.725 15.5 A 6.295 6.295 0 0 1 154.047 13.594 A 8.758 8.758 0 0 1 153.9 11.95 A 8.015 8.015 0 0 1 154.129 9.998 A 6.67 6.67 0 0 1 154.713 8.475 A 6.427 6.427 0 0 1 156.228 6.569 A 6.112 6.112 0 0 1 156.9 6.075 Q 158.275 5.2 159.925 5.2 A 5.591 5.591 0 0 1 161.13 5.325 A 4.679 4.679 0 0 1 161.925 5.575 A 6.426 6.426 0 0 1 162.882 6.067 A 5.25 5.25 0 0 1 163.475 6.5 L 163.475 5.5 L 165.525 5.5 L 165.525 18.2 A 10.173 10.173 0 0 1 165.436 19.584 Q 165.336 20.314 165.122 20.923 A 5.041 5.041 0 0 1 164.775 21.7 Q 164.025 23.05 162.688 23.675 A 6.453 6.453 0 0 1 161.036 24.18 A 8.811 8.811 0 0 1 159.55 24.3 Q 158.4 24.3 157.313 24.025 A 6.808 6.808 0 0 1 155.987 23.546 A 5.879 5.879 0 0 1 155.375 23.2 Z M 86.95 18.5 L 84.7 18.5 L 84.7 5.5 L 86.875 5.5 L 86.875 7.675 Q 87.575 6.625 88.663 5.913 A 4.329 4.329 0 0 1 90.439 5.256 A 5.657 5.657 0 0 1 91.25 5.2 A 5.806 5.806 0 0 1 92.516 5.329 Q 93.352 5.516 93.961 5.973 A 3.315 3.315 0 0 1 94.537 6.525 A 4.601 4.601 0 0 1 95.439 8.37 Q 95.602 9.03 95.622 9.802 A 8.441 8.441 0 0 1 95.625 10.025 L 95.625 18.5 L 93.375 18.5 L 93.375 10.275 Q 93.375 9.127 92.93 8.349 A 2.741 2.741 0 0 0 92.713 8.025 A 2.145 2.145 0 0 0 91.143 7.187 A 3.015 3.015 0 0 0 90.875 7.175 A 3.28 3.28 0 0 0 89.163 7.666 A 4.338 4.338 0 0 0 88.7 7.988 Q 87.675 8.8 86.95 9.9 L 86.95 18.5 Z M 185.1 17.425 L 185.1 18.5 L 183 18.5 L 183 0 L 185.25 0 L 185.25 6.85 A 3.878 3.878 0 0 1 185.722 6.398 Q 185.976 6.19 186.294 5.987 A 8.329 8.329 0 0 1 186.712 5.737 A 4.146 4.146 0 0 1 188.02 5.282 A 5.606 5.606 0 0 1 189 5.2 Q 190.5 5.2 191.813 5.987 A 5.582 5.582 0 0 1 193.607 7.729 A 6.866 6.866 0 0 1 193.925 8.263 A 6.421 6.421 0 0 1 194.549 10.023 Q 194.725 10.879 194.725 11.875 A 8.329 8.329 0 0 1 194.553 13.597 A 6.937 6.937 0 0 1 194.225 14.7 A 7.342 7.342 0 0 1 193.435 16.201 A 6.371 6.371 0 0 1 192.887 16.887 A 6.224 6.224 0 0 1 191.355 18.116 A 5.826 5.826 0 0 1 191 18.3 A 5.001 5.001 0 0 1 189.158 18.79 A 4.802 4.802 0 0 1 188.85 18.8 Q 187.725 18.8 186.738 18.388 A 7.569 7.569 0 0 1 185.912 17.985 Q 185.455 17.726 185.1 17.425 Z M 81.625 12.925 L 72.525 12.925 A 6.022 6.022 0 0 0 72.81 14.181 Q 73.107 15.03 73.66 15.631 A 3.745 3.745 0 0 0 73.8 15.775 A 3.536 3.536 0 0 0 75.706 16.728 A 5.005 5.005 0 0 0 76.575 16.8 Q 77.7 16.8 78.6 16.563 Q 79.5 16.325 80.325 15.95 L 80.85 17.875 A 10.192 10.192 0 0 1 79.766 18.281 A 12.966 12.966 0 0 1 78.825 18.538 Q 77.7 18.8 76.3 18.8 Q 73.5 18.8 71.863 17.013 A 5.88 5.88 0 0 1 70.561 14.628 Q 70.309 13.753 70.246 12.712 A 11.781 11.781 0 0 1 70.225 12 A 8.84 8.84 0 0 1 70.433 10.045 A 7.21 7.21 0 0 1 70.962 8.512 A 6.16 6.16 0 0 1 72.217 6.742 A 5.722 5.722 0 0 1 73.025 6.087 A 5.262 5.262 0 0 1 75.59 5.22 A 6.551 6.551 0 0 1 76.1 5.2 A 7.138 7.138 0 0 1 77.468 5.324 Q 78.304 5.487 78.971 5.865 A 4.303 4.303 0 0 1 79.212 6.013 Q 80.45 6.825 81.075 8.2 A 7.046 7.046 0 0 1 81.682 10.666 A 8.359 8.359 0 0 1 81.7 11.225 A 18.801 18.801 0 0 1 81.627 12.899 A 17.613 17.613 0 0 1 81.625 12.925 Z M 179.925 12.925 L 170.825 12.925 A 6.022 6.022 0 0 0 171.11 14.181 Q 171.407 15.03 171.96 15.631 A 3.745 3.745 0 0 0 172.1 15.775 A 3.536 3.536 0 0 0 174.006 16.728 A 5.005 5.005 0 0 0 174.875 16.8 Q 176 16.8 176.9 16.563 Q 177.8 16.325 178.625 15.95 L 179.15 17.875 A 10.192 10.192 0 0 1 178.066 18.281 A 12.966 12.966 0 0 1 177.125 18.538 Q 176 18.8 174.6 18.8 Q 171.8 18.8 170.163 17.013 A 5.88 5.88 0 0 1 168.861 14.628 Q 168.609 13.753 168.546 12.712 A 11.781 11.781 0 0 1 168.525 12 A 8.84 8.84 0 0 1 168.733 10.045 A 7.21 7.21 0 0 1 169.262 8.512 A 6.16 6.16 0 0 1 170.517 6.742 A 5.722 5.722 0 0 1 171.325 6.087 A 5.262 5.262 0 0 1 173.89 5.22 A 6.551 6.551 0 0 1 174.4 5.2 A 7.138 7.138 0 0 1 175.768 5.324 Q 176.604 5.487 177.271 5.865 A 4.303 4.303 0 0 1 177.512 6.013 Q 178.75 6.825 179.375 8.2 A 7.046 7.046 0 0 1 179.982 10.666 A 8.359 8.359 0 0 1 180 11.225 A 18.801 18.801 0 0 1 179.927 12.899 A 17.613 17.613 0 0 1 179.925 12.925 Z M 62.175 14.025 L 62.175 7.925 L 59.925 7.925 L 59.925 5.975 L 62.225 5.975 L 62.7 1.875 L 64.425 1.875 L 64.425 5.975 L 68.025 5.975 L 68.025 7.925 L 64.425 7.925 L 64.425 14.2 Q 64.425 15.485 64.906 16.083 A 1.389 1.389 0 0 0 65.038 16.225 Q 65.65 16.8 66.5 16.8 Q 67.125 16.8 67.688 16.6 A 6.433 6.433 0 0 0 68.482 16.258 A 5.692 5.692 0 0 0 68.725 16.125 L 69.35 17.925 A 4.637 4.637 0 0 1 68.945 18.139 Q 68.545 18.328 68 18.513 Q 67.15 18.8 66.225 18.8 A 5.649 5.649 0 0 1 66.196 18.8 Q 65.486 18.796 64.89 18.614 A 3.481 3.481 0 0 1 63.263 17.562 A 4.029 4.029 0 0 1 62.455 16.087 Q 62.265 15.479 62.204 14.745 A 8.694 8.694 0 0 1 62.175 14.025 Z M 29.5 6.55 L 29.5 5.5 L 31.55 5.5 L 31.55 15.35 A 3.037 3.037 0 0 0 31.575 15.759 Q 31.658 16.367 32.013 16.588 Q 32.475 16.875 33.025 16.875 L 32.55 18.625 Q 30.209 18.625 29.676 16.77 A 3.398 3.398 0 0 1 29.65 16.675 A 5.327 5.327 0 0 1 28.873 17.531 A 7.125 7.125 0 0 1 28.088 18.138 A 3.732 3.732 0 0 1 26.849 18.663 Q 26.345 18.782 25.757 18.798 A 6.8 6.8 0 0 1 25.575 18.8 Q 23.95 18.8 22.625 17.975 A 5.737 5.737 0 0 1 20.772 16.093 A 6.981 6.981 0 0 1 20.512 15.638 A 6.807 6.807 0 0 1 19.855 13.652 A 9.161 9.161 0 0 1 19.725 12.075 A 8.285 8.285 0 0 1 19.974 10.008 A 6.992 6.992 0 0 1 20.513 8.575 Q 21.3 7.025 22.688 6.112 A 5.574 5.574 0 0 1 25.486 5.211 A 6.847 6.847 0 0 1 25.875 5.2 Q 27 5.2 27.913 5.587 A 6.5 6.5 0 0 1 28.984 6.161 A 5.526 5.526 0 0 1 29.5 6.55 Z M 44.675 6.55 L 44.675 5.5 L 46.725 5.5 L 46.725 15.35 A 3.037 3.037 0 0 0 46.75 15.759 Q 46.833 16.367 47.188 16.588 Q 47.65 16.875 48.2 16.875 L 47.725 18.625 Q 45.384 18.625 44.851 16.77 A 3.398 3.398 0 0 1 44.825 16.675 A 5.327 5.327 0 0 1 44.048 17.531 A 7.125 7.125 0 0 1 43.263 18.138 A 3.732 3.732 0 0 1 42.024 18.663 Q 41.52 18.782 40.932 18.798 A 6.8 6.8 0 0 1 40.75 18.8 Q 39.125 18.8 37.8 17.975 A 5.737 5.737 0 0 1 35.947 16.093 A 6.981 6.981 0 0 1 35.687 15.638 A 6.807 6.807 0 0 1 35.03 13.652 A 9.161 9.161 0 0 1 34.9 12.075 A 8.285 8.285 0 0 1 35.149 10.008 A 6.992 6.992 0 0 1 35.688 8.575 Q 36.475 7.025 37.863 6.112 A 5.574 5.574 0 0 1 40.661 5.211 A 6.847 6.847 0 0 1 41.05 5.2 Q 42.175 5.2 43.088 5.587 A 6.5 6.5 0 0 1 44.159 6.161 A 5.526 5.526 0 0 1 44.675 6.55 Z M 53.45 18.5 L 51.2 18.5 L 51.2 5.5 L 53.375 5.5 L 53.375 8.325 Q 53.7 7.5 54.25 6.788 Q 54.8 6.075 55.625 5.637 A 3.704 3.704 0 0 1 56.795 5.257 A 4.865 4.865 0 0 1 57.55 5.2 Q 57.925 5.2 58.3 5.237 Q 58.583 5.266 58.795 5.316 A 2.204 2.204 0 0 1 58.925 5.35 L 58.25 7.675 Q 57.797 7.484 57.184 7.475 A 4.148 4.148 0 0 0 57.125 7.475 Q 56.2 7.475 55.363 8 Q 54.525 8.525 53.988 9.625 A 4.83 4.83 0 0 0 53.62 10.702 Q 53.504 11.223 53.467 11.832 A 9.772 9.772 0 0 0 53.45 12.425 L 53.45 18.5 Z M 128.19 18.465 A 6.804 6.804 0 0 0 130.35 18.8 A 7.682 7.682 0 0 0 130.919 18.779 A 6.314 6.314 0 0 0 133.662 17.95 Q 135.125 17.1 135.975 15.563 A 6.564 6.564 0 0 0 136.638 13.777 A 8.546 8.546 0 0 0 136.825 11.95 A 8.635 8.635 0 0 0 136.704 10.473 A 6.449 6.449 0 0 0 135.963 8.363 Q 135.1 6.85 133.638 6.025 A 6.212 6.212 0 0 0 132.477 5.518 A 6.934 6.934 0 0 0 130.35 5.2 Q 128.525 5.2 127.05 6.025 Q 125.575 6.85 124.725 8.375 A 6.506 6.506 0 0 0 124.038 10.273 A 8.751 8.751 0 0 0 123.875 12 A 8.705 8.705 0 0 0 123.941 13.088 A 6.863 6.863 0 0 0 124.712 15.538 Q 125.55 17.075 127.025 17.938 A 6.14 6.14 0 0 0 128.19 18.465 Z M 143.14 18.465 A 6.804 6.804 0 0 0 145.3 18.8 A 7.682 7.682 0 0 0 145.869 18.779 A 6.314 6.314 0 0 0 148.612 17.95 Q 150.075 17.1 150.925 15.563 A 6.564 6.564 0 0 0 151.588 13.777 A 8.546 8.546 0 0 0 151.775 11.95 A 8.635 8.635 0 0 0 151.654 10.473 A 6.449 6.449 0 0 0 150.913 8.363 Q 150.05 6.85 148.588 6.025 A 6.212 6.212 0 0 0 147.427 5.518 A 6.934 6.934 0 0 0 145.3 5.2 Q 143.475 5.2 142 6.025 Q 140.525 6.85 139.675 8.375 A 6.506 6.506 0 0 0 138.988 10.273 A 8.751 8.751 0 0 0 138.825 12 A 8.705 8.705 0 0 0 138.891 13.088 A 6.863 6.863 0 0 0 139.662 15.538 Q 140.5 17.075 141.975 17.938 A 6.14 6.14 0 0 0 143.14 18.465 Z M 201.165 18.465 A 6.804 6.804 0 0 0 203.325 18.8 A 7.682 7.682 0 0 0 203.894 18.779 A 6.314 6.314 0 0 0 206.637 17.95 Q 208.1 17.1 208.95 15.563 A 6.564 6.564 0 0 0 209.613 13.777 A 8.546 8.546 0 0 0 209.8 11.95 A 8.635 8.635 0 0 0 209.679 10.473 A 6.449 6.449 0 0 0 208.938 8.363 Q 208.075 6.85 206.612 6.025 A 6.212 6.212 0 0 0 205.452 5.518 A 6.934 6.934 0 0 0 203.325 5.2 Q 201.5 5.2 200.025 6.025 Q 198.55 6.85 197.7 8.375 A 6.506 6.506 0 0 0 197.013 10.273 A 8.751 8.751 0 0 0 196.85 12 A 8.705 8.705 0 0 0 196.916 13.088 A 6.863 6.863 0 0 0 197.687 15.538 Q 198.525 17.075 200 17.938 A 6.14 6.14 0 0 0 201.165 18.465 Z M 216.115 18.465 A 6.804 6.804 0 0 0 218.275 18.8 A 7.682 7.682 0 0 0 218.844 18.779 A 6.314 6.314 0 0 0 221.587 17.95 Q 223.05 17.1 223.9 15.563 A 6.564 6.564 0 0 0 224.563 13.777 A 8.546 8.546 0 0 0 224.75 11.95 A 8.635 8.635 0 0 0 224.629 10.473 A 6.449 6.449 0 0 0 223.888 8.363 Q 223.025 6.85 221.562 6.025 A 6.212 6.212 0 0 0 220.402 5.518 A 6.934 6.934 0 0 0 218.275 5.2 Q 216.45 5.2 214.975 6.025 Q 213.5 6.85 212.65 8.375 A 6.506 6.506 0 0 0 211.963 10.273 A 8.751 8.751 0 0 0 211.8 12 A 8.705 8.705 0 0 0 211.866 13.088 A 6.863 6.863 0 0 0 212.637 15.538 Q 213.475 17.075 214.95 17.938 A 6.14 6.14 0 0 0 216.115 18.465 Z M 130.35 16.8 Q 132.325 16.8 133.425 15.463 Q 134.525 14.125 134.525 12 A 5.344 5.344 0 0 0 134.219 10.178 A 5.004 5.004 0 0 0 133.975 9.613 A 4.799 4.799 0 0 0 132.932 8.22 A 4.543 4.543 0 0 0 132.487 7.863 Q 131.55 7.2 130.35 7.2 A 4.812 4.812 0 0 0 129.043 7.368 A 3.509 3.509 0 0 0 127.275 8.5 A 4.47 4.47 0 0 0 126.357 10.343 Q 126.192 11.008 126.177 11.787 A 8.217 8.217 0 0 0 126.175 11.95 Q 126.175 13.25 126.725 14.363 Q 127.275 15.475 128.213 16.138 Q 129.15 16.8 130.35 16.8 Z M 145.3 16.8 Q 147.275 16.8 148.375 15.463 Q 149.475 14.125 149.475 12 A 5.344 5.344 0 0 0 149.169 10.178 A 5.004 5.004 0 0 0 148.925 9.613 A 4.799 4.799 0 0 0 147.882 8.22 A 4.543 4.543 0 0 0 147.437 7.863 Q 146.5 7.2 145.3 7.2 A 4.812 4.812 0 0 0 143.993 7.368 A 3.509 3.509 0 0 0 142.225 8.5 A 4.47 4.47 0 0 0 141.307 10.343 Q 141.142 11.008 141.127 11.787 A 8.217 8.217 0 0 0 141.125 11.95 Q 141.125 13.25 141.675 14.363 Q 142.225 15.475 143.163 16.138 Q 144.1 16.8 145.3 16.8 Z M 203.325 16.8 Q 205.3 16.8 206.4 15.463 Q 207.5 14.125 207.5 12 A 5.344 5.344 0 0 0 207.194 10.178 A 5.004 5.004 0 0 0 206.95 9.613 A 4.799 4.799 0 0 0 205.907 8.22 A 4.543 4.543 0 0 0 205.462 7.863 Q 204.525 7.2 203.325 7.2 A 4.812 4.812 0 0 0 202.018 7.368 A 3.509 3.509 0 0 0 200.25 8.5 A 4.47 4.47 0 0 0 199.332 10.343 Q 199.167 11.008 199.152 11.787 A 8.217 8.217 0 0 0 199.15 11.95 Q 199.15 13.25 199.7 14.363 Q 200.25 15.475 201.188 16.138 Q 202.125 16.8 203.325 16.8 Z M 218.275 16.8 Q 220.25 16.8 221.35 15.463 Q 222.45 14.125 222.45 12 A 5.344 5.344 0 0 0 222.144 10.178 A 5.004 5.004 0 0 0 221.9 9.613 A 4.799 4.799 0 0 0 220.857 8.22 A 4.543 4.543 0 0 0 220.412 7.863 Q 219.475 7.2 218.275 7.2 A 4.812 4.812 0 0 0 216.968 7.368 A 3.509 3.509 0 0 0 215.2 8.5 A 4.47 4.47 0 0 0 214.282 10.343 Q 214.117 11.008 214.102 11.787 A 8.217 8.217 0 0 0 214.1 11.95 Q 214.1 13.25 214.65 14.363 Q 215.2 15.475 216.138 16.138 Q 217.075 16.8 218.275 16.8 Z M 29.3 15.175 L 29.3 8.2 Q 28.625 7.725 27.813 7.438 Q 27 7.15 26.1 7.15 A 3.981 3.981 0 0 0 24.857 7.338 A 3.506 3.506 0 0 0 23.987 7.763 A 4.075 4.075 0 0 0 22.733 9.118 A 4.991 4.991 0 0 0 22.55 9.462 A 5.166 5.166 0 0 0 22.112 10.882 A 6.92 6.92 0 0 0 22.025 12 A 6.392 6.392 0 0 0 22.156 13.322 A 5.086 5.086 0 0 0 22.55 14.488 A 4.4 4.4 0 0 0 23.326 15.624 A 3.924 3.924 0 0 0 24 16.188 Q 24.925 16.8 26.075 16.8 Q 27.025 16.8 27.875 16.338 A 4.863 4.863 0 0 0 29.055 15.45 A 4.518 4.518 0 0 0 29.3 15.175 Z M 44.475 15.175 L 44.475 8.2 Q 43.8 7.725 42.988 7.438 Q 42.175 7.15 41.275 7.15 A 3.981 3.981 0 0 0 40.032 7.338 A 3.506 3.506 0 0 0 39.162 7.763 A 4.075 4.075 0 0 0 37.908 9.118 A 4.991 4.991 0 0 0 37.725 9.462 A 5.166 5.166 0 0 0 37.287 10.882 A 6.92 6.92 0 0 0 37.2 12 A 6.392 6.392 0 0 0 37.331 13.322 A 5.086 5.086 0 0 0 37.725 14.488 A 4.4 4.4 0 0 0 38.501 15.624 A 3.924 3.924 0 0 0 39.175 16.188 Q 40.1 16.8 41.25 16.8 Q 42.2 16.8 43.05 16.338 A 4.863 4.863 0 0 0 44.23 15.45 A 4.518 4.518 0 0 0 44.475 15.175 Z M 185.25 8.85 L 185.25 15.8 A 4.498 4.498 0 0 0 186.157 16.346 A 5.45 5.45 0 0 0 186.6 16.525 A 4.865 4.865 0 0 0 188.141 16.799 A 5.511 5.511 0 0 0 188.25 16.8 A 4.248 4.248 0 0 0 189.504 16.621 A 3.687 3.687 0 0 0 190.413 16.2 Q 191.35 15.6 191.888 14.5 A 5.217 5.217 0 0 0 192.349 12.988 A 6.869 6.869 0 0 0 192.425 11.95 Q 192.425 10.503 191.925 9.452 A 4.335 4.335 0 0 0 191.887 9.375 Q 191.35 8.3 190.463 7.725 Q 189.575 7.15 188.5 7.15 Q 187.425 7.15 186.563 7.688 Q 185.7 8.225 185.25 8.85 Z M 163.275 15 L 163.275 8.2 A 5.599 5.599 0 0 0 162.669 7.819 Q 162.338 7.637 161.95 7.475 A 4.062 4.062 0 0 0 160.999 7.212 A 5.534 5.534 0 0 0 160.15 7.15 Q 159.125 7.15 158.225 7.7 A 3.934 3.934 0 0 0 157.025 8.857 A 4.904 4.904 0 0 0 156.762 9.287 Q 156.2 10.325 156.2 11.825 A 6.08 6.08 0 0 0 156.32 13.059 A 4.578 4.578 0 0 0 156.762 14.3 A 4.644 4.644 0 0 0 157.49 15.319 A 3.951 3.951 0 0 0 158.225 15.925 Q 159.125 16.5 160.175 16.5 A 3.819 3.819 0 0 0 161.319 16.333 A 3.401 3.401 0 0 0 161.975 16.05 A 5.214 5.214 0 0 0 162.72 15.546 A 4.077 4.077 0 0 0 163.275 15 Z M 72.5 11.1 L 79.625 11.1 A 6.089 6.089 0 0 0 79.524 9.954 Q 79.315 8.866 78.675 8.175 A 3.122 3.122 0 0 0 76.935 7.231 A 4.599 4.599 0 0 0 76.05 7.15 A 3.395 3.395 0 0 0 74.772 7.384 A 3.131 3.131 0 0 0 73.65 8.162 A 3.791 3.791 0 0 0 72.915 9.335 Q 72.704 9.85 72.588 10.48 A 8.005 8.005 0 0 0 72.5 11.1 Z M 170.8 11.1 L 177.925 11.1 A 6.089 6.089 0 0 0 177.824 9.954 Q 177.615 8.866 176.975 8.175 A 3.122 3.122 0 0 0 175.235 7.231 A 4.599 4.599 0 0 0 174.35 7.15 A 3.395 3.395 0 0 0 173.072 7.384 A 3.131 3.131 0 0 0 171.95 8.162 A 3.791 3.791 0 0 0 171.215 9.335 Q 171.004 9.85 170.888 10.48 A 8.005 8.005 0 0 0 170.8 11.1 Z" vector-effect="non-scaling-stroke"/></g></svg>